# xmcd
#
# Track frame offsets:
#	150
#	19551
#	36855
#	53043
#	69620
#	84924
#	102566
#	118986
#
# Disc length: 1826 seconds
#
# Revision: 0
# Processed by: cddbd v1.5.2PL0 Copyright (c) Steve Scherf et al.
# Submitted via: EZCDAudioConverter 7.1.2.1
#
DISCID=65072008
DTITLE=Leif Sylvester - Family and Friends - Født Til At Dø
DYEAR=2018
DGENRE=Blues Rock
TTITLE0=Født Til At Dø
TTITLE1=Umådelig Mange Kvinder
TTITLE2=Oh-Oh Oline
TTITLE3=De Brune Sko
TTITLE4=Den Dag Jeg Mødte Dig
TTITLE5=De Kan Sige Hvad De Vil
TTITLE6=Asfalten Visker
TTITLE7=Loverman
EXTD=
EXTT0=
EXTT1=
EXTT2=
EXTT3=
EXTT4=
EXTT5=
EXTT6=
EXTT7=
PLAYORDER=
